
<svg xmlns="http://www.w3.org/2000/svg"
     class="svg-snoweb svg-theme-light"
     x="0"
     y="0"
     width="100%"
     height="100%"
     viewBox="0 0 100 100"
     preserveAspectRatio="xMidYMid meet"
>
<defs>
    <style>
        
            
            
            
        

        .svg-fill-primary {
            fill: #090D49;
        }

        .svg-fill-secondary {
            fill: #65CDAE;
        }

        .svg-fill-tertiary {
            fill: #E5E7EB;
        }

        .svg-stroke-primary {
            stroke: #090D49;
        }

        .svg-stroke-secondary {
            stroke: #65CDAE;
        }

        .svg-stroke-tertiary {
            stroke: #E5E7EB;
        }
    </style>
</defs>
    <path d="M50,57,82.1,39.2,50,21.4,17.9,39.2Zm0,0L72,44.8a43.5,43.5,0,0,1,3,15.8,34.8,34.8,0,0,1-.7,7.3A42.5,42.5,0,0,0,50,78.6,42.5,42.5,0,0,0,25.7,67.9a34.8,34.8,0,0,1-.7-7.3,43.5,43.5,0,0,1,3-15.8ZM35.7,78.4V51.7L50,43.8"
      fill="none" class="svg-stroke-primary" stroke-linecap="round" stroke-linejoin="round" stroke-width="8"/>

</svg>