<svg xmlns="http://www.w3.org/2000/svg" width="100%" height="100%" x="0" y="0" class="svg-snoweb svg-theme-light" preserveAspectRatio="xMidYMid meet" viewBox="0 0 100 100"><defs><style>.svg-stroke-primary{stroke:#090d49}</style></defs><path fill="none" stroke-linecap="round" stroke-linejoin="round" stroke-width="8" d="M50,57,82.1,39.2,50,21.4,17.9,39.2Zm0,0L72,44.8a43.5,43.5,0,0,1,3,15.8,34.8,34.8,0,0,1-.7,7.3A42.5,42.5,0,0,0,50,78.6,42.5,42.5,0,0,0,25.7,67.9a34.8,34.8,0,0,1-.7-7.3,43.5,43.5,0,0,1,3-15.8ZM35.7,78.4V51.7L50,43.8" class="svg-stroke-primary"/></svg>