<svg xmlns="http://www.w3.org/2000/svg" width="896" height="896" preserveAspectRatio="xMidYMid meet" version="1.0" viewBox="0 0 672 672"><metadata>Created by potrace 1.16, written by Peter Selinger 2001-2019</metadata><g fill="#000" stroke="none"><path d="M4229 4103 c-287 -290 -311 -317 -358 -410 -120 -239 -92 -553 67 -753 66 -82 185 -199 196 -193 6 3 8 2 3 -2 -9 -11 354 -376 371 -373 17 4 322 308 322 322 0 5 -117 127 -259 271 -283 283 -301 307 -301 405 0 98 18 122 301 405 142 143 259 266 259 273 0 18 -305 322 -322 322 -7 0 -133 -120 -279 -267z" transform="translate(0.000000,672.000000) scale(0.100000,-0.100000)"/><path d="M4727 3599 c-89 -21 -147 -77 -173 -166 -28 -98 7 -196 91 -255 106 -74 257 -45 332 65 25 38 28 50 28 127 0 82 -1 88 -35 135 -56 77 -154 116 -243 94z" transform="translate(0.000000,672.000000) scale(0.100000,-0.100000)"/></g></svg>