<svg width="1170" height="659" viewBox="0 0 1170 659" fill="none" xmlns="http://www.w3.org/2000/svg">
<path d="M737.733 243.635V114.346L724.344 127.768V243.635L747.393 266.911L724.344 290.186H737.733L760.951 266.911L737.733 243.635Z" fill="#FF8AE2"/>
<path d="M1083.3 104.153H1069.91L1092.96 127.428V166.164V189.439V274.556L1077.53 290.186H1090.92L1106.52 274.556V189.439V166.164V127.428L1083.3 104.153Z" fill="#FF8AE2"/>
<path d="M505.549 42.1416H493.177L516.396 65.417V104.153V127.428V173.809V274.556L500.804 290.186H513.345L528.767 274.556V65.417L505.549 42.1416Z" fill="#FF8AE2"/>
<path d="M292.008 243.635V114.007L278.62 127.428V243.635L301.838 266.911L278.62 290.186H292.008L315.227 266.911L292.008 243.635Z" fill="#FF8AE2"/>
<path d="M657.062 80.8775H643.673V104.153H657.062V80.8775Z" fill="#FF8AE2"/>
<path d="M643.673 259.096L657.062 245.674V135.074L688.076 104.153H674.687L643.673 135.074V259.096Z" fill="#FF8AE2"/>
<path d="M659.265 243.636L666.891 251.451L643.673 274.556L628.251 290.186H641.639L657.062 274.556L680.28 251.451L672.654 243.636H659.265Z" fill="#FF8AE2"/>
<path d="M863.824 243.635V127.428V104.153V65.417L840.606 42.1416H827.217L850.435 65.417V104.153V127.428V243.635L873.484 266.911L850.435 290.186H863.824L887.042 266.911L863.824 243.635Z" fill="#FF8AE2"/>
<path d="M887.042 104.153H873.484L904.498 135.073V235.82L880.263 260.115L887.042 266.911L917.887 235.82V135.073L887.042 104.153Z" fill="#FF8AE2"/>
<path d="M110.668 94.6387V151.213L124.057 137.792V94.6387V54.0342L99.6521 29.5695H99.4826H86.2634L110.668 54.0342V94.6387Z" fill="#FF8AE2"/>
<path d="M183.543 62.1891V94.6388V216.792V241.257L199.813 257.567L206.592 250.771L196.932 241.257V216.792V94.6388V62.1891V54.0342L172.527 29.5695H159.139L183.543 54.0342V62.1891Z" fill="#FF8AE2"/>
<path d="M151.003 145.947L110.668 186.381V273.877L94.3981 290.186H107.787L124.057 273.877V186.381L151.003 159.368V145.947Z" fill="#FF8AE2"/>
<path d="M69.9935 62.3591L45.5889 86.6539H59.147L76.7726 68.985L69.9935 62.3591Z" fill="#FF8AE2"/>
<path d="M229.472 241.257H216.083L224.218 249.412L207.948 265.722L199.814 273.877L183.544 290.186H196.932L213.202 273.877L221.337 265.722L237.607 249.412L229.472 241.257Z" fill="#FF8AE2"/>
<path d="M760.951 104.153H747.393L778.407 135.073V235.82L754.172 260.115L760.951 266.911L791.796 235.82V135.073L760.951 104.153Z" fill="#FF8AE2"/>
<path d="M1024.32 134.903L970.425 188.93V243.635L985.847 259.096L992.627 252.47L983.814 243.635V188.93L1037.71 134.903L1007.03 104.153H993.643L1024.32 134.903Z" fill="#FF8AE2"/>
<path d="M1009.07 235.82L1016.86 243.635L993.643 266.911L985.847 274.556L970.425 290.186H983.814L999.236 274.556L1007.03 266.911L1030.25 243.635L1022.45 235.82H1009.07Z" fill="#FF8AE2"/>
<path d="M970.425 173.469L983.814 160.048V140.85L970.425 127.428V173.469Z" fill="#FF8AE2"/>
<path d="M346.072 251.45V135.073L315.227 104.153H301.838L332.683 135.073V251.45L348.105 266.911L325.057 290.186H338.445L361.494 266.911L346.072 251.45Z" fill="#FF8AE2"/>
<path d="M425.895 259.096L432.505 252.47L423.862 243.635V140.51L410.642 127.428H410.473V243.635L425.895 259.096Z" fill="#FF8AE2"/>
<path d="M462.502 235.821H449.114L456.74 243.636L433.691 266.911L425.895 274.556L410.473 290.186H423.862L439.284 274.556L447.08 266.911L470.129 243.636L462.502 235.821Z" fill="#FF8AE2"/>
<path d="M433.691 150.364H447.08L470.129 127.088L447.08 103.813H433.691L456.74 127.088L433.691 150.364Z" fill="#FF8AE2"/>
<path d="M553.003 104.153H539.445L562.664 127.428L539.445 150.704H553.003L576.052 127.428L553.003 104.153Z" fill="#FF8AE2"/>
<path d="M1129.56 104.153H1116.18L1139.39 127.428L1116.18 150.704H1129.56L1152.78 127.428L1129.56 104.153Z" fill="#FF8AE2"/>
<path d="M553.003 150.704H539.445L562.664 173.809V274.556L547.241 290.186H560.63L576.052 274.556V173.809L553.003 150.704Z" fill="#FF8AE2"/>
<path d="M674.688 104.153H643.674V80.8774L589.611 135.073H612.829V274.556L628.252 290.186L643.674 274.556L666.892 251.451L659.266 243.635L643.674 259.096V135.073L674.688 104.153Z" fill="#9C4668"/>
<path d="M850.436 127.428V104.153V65.4171L827.218 42.1417L803.999 65.4171L819.422 80.8774V259.096L850.436 290.186L873.485 266.911L850.436 243.635V127.428Z" fill="#9C4668"/>
<path d="M850.436 127.428L873.484 150.704V266.911L904.499 235.82V135.073L873.484 104.153L850.436 127.428Z" fill="#9C4668"/>
<path d="M199.814 257.567L183.544 241.257V216.792V94.6389V62.1893V54.0344L159.139 29.5697L134.904 54.0344L151.004 70.1743V110.779L110.669 151.214V94.6389V54.0344L86.264 29.5697H86.0945L37.2852 78.3292L45.5895 86.6539L69.9942 62.3592L78.1291 70.514V273.877L94.3989 290.186L110.669 273.877V186.381L151.004 145.947V216.792V257.567L183.544 290.186L199.814 273.877L207.948 265.722L224.218 249.412L216.083 241.257L199.814 257.567Z" fill="#9C4668"/>
<path d="M724.344 127.428L693.33 158.349V259.096L724.344 290.186L747.393 266.911L724.344 243.636V127.428Z" fill="#9C4668"/>
<path d="M724.345 127.428L747.394 150.704V266.911L778.408 235.82V135.073L747.394 104.153L724.345 127.428Z" fill="#9C4668"/>
<path d="M1024.32 134.904L993.644 104.153L970.425 127.428L993.474 150.364L970.425 173.469V127.428L939.411 158.349V259.096L970.425 290.186L985.848 274.556L993.644 266.911L1016.86 243.635L1009.07 235.82L985.848 259.096L970.425 243.635V188.93L1024.32 134.904Z" fill="#9C4668"/>
<path d="M278.62 127.428L247.606 158.349V259.096L278.62 290.186L301.839 266.911L278.62 243.635V127.428Z" fill="#9C4668"/>
<path d="M332.683 135.073L301.838 104.153L278.62 127.428L301.838 150.704V266.911L325.057 290.186L348.106 266.911L332.683 251.45V135.073Z" fill="#9C4668"/>
<path d="M425.896 259.096L410.474 243.636V127.428L379.459 158.349V259.096L410.474 290.186L425.896 274.556L433.692 266.911L456.741 243.636L449.114 235.82L425.896 259.096Z" fill="#9C4668"/>
<path d="M433.766 103.892L410.49 127.17L433.766 150.447L457.043 127.17L433.766 103.892Z" fill="#9C4668"/>
<path d="M539.651 104.067L516.375 127.345L539.651 150.622L562.928 127.345L539.651 104.067Z" fill="#9C4668"/>
<path d="M531.819 189.439V274.556L547.241 290.186L562.664 274.556V173.809L539.446 150.704L516.397 173.809L531.819 189.439Z" fill="#9C4668"/>
<path d="M516.396 104.153V65.4171L493.178 42.1417L469.959 65.4171L485.382 80.8774V274.556L500.804 290.186L516.396 274.556V173.809V127.428V104.153Z" fill="#9C4668"/>
<path d="M1116.37 104.058L1093.1 127.335L1116.37 150.613L1139.65 127.336L1116.37 104.058Z" fill="#9C4668"/>
<path d="M1046.69 127.428L1062.11 142.889V166.164V189.439V274.556L1077.53 290.186L1092.96 274.556V189.439V166.164V127.428L1069.91 104.153L1046.69 127.428Z" fill="#9C4668"/>
<path d="M711.634 44.3504V35.1762H715.193C718.413 35.1762 720.955 37.7246 720.955 40.9525V65.9269C717.396 67.1162 714.854 70.514 714.854 74.5915C714.854 77.1399 715.871 79.3485 717.396 81.0474C719.091 82.7464 721.294 83.7657 724.006 83.7657C729.09 83.7657 733.157 79.6883 733.157 74.5915C733.157 70.8538 730.785 67.6258 727.565 66.0968V40.9525C727.565 37.5547 726.209 34.4966 723.836 32.1181C721.463 29.7396 718.413 28.3804 715.023 28.3804H711.464V19.2062L699.093 31.6084L711.634 44.3504ZM724.175 70.514C725.361 70.514 726.378 71.0237 727.226 71.7033C727.904 72.3829 728.412 73.5721 728.412 74.5915C728.412 75.7807 727.904 76.8001 727.226 77.4797C726.378 78.3291 725.361 78.6689 724.345 78.6689C721.972 78.6689 720.108 76.8001 720.108 74.4216C719.938 72.3829 721.802 70.514 724.175 70.514Z" fill="#9C4668"/>
<path d="M697.228 74.7615C697.228 71.0238 694.856 67.7958 691.636 66.2668V40.443C694.856 39.0838 697.228 35.8559 697.228 31.9483C697.228 26.8515 693.161 22.774 688.077 22.774C682.992 22.774 678.925 26.8515 678.925 31.9483C678.925 34.3268 679.772 36.7053 681.467 38.4042C682.484 39.4236 683.67 40.1032 684.857 40.6129V66.0969C681.298 67.2862 678.755 70.684 678.755 74.7615C678.755 77.3099 679.772 79.5185 681.298 81.2174C682.992 82.9164 685.195 83.9357 687.907 83.9357C693.161 83.9357 697.228 79.6884 697.228 74.7615ZM688.077 36.1956C686.89 36.1956 685.873 35.686 685.196 35.0064C684.348 34.1569 684.009 33.1376 684.009 32.1182C684.009 29.7397 685.873 27.8709 688.246 27.8709C689.432 27.8709 690.449 28.3805 691.297 29.0601C691.975 29.7397 692.483 30.9289 692.483 31.9483C692.314 34.3268 690.449 36.1956 688.077 36.1956ZM688.077 78.8389C685.704 78.8389 683.84 76.9701 683.84 74.5916C683.84 73.4023 684.348 72.383 685.026 71.7034C685.873 70.8539 686.89 70.5141 687.907 70.5141C689.093 70.5141 690.11 71.0238 690.958 71.7034C691.636 72.383 692.144 73.5722 692.144 74.5916C692.314 76.9701 690.449 78.8389 688.077 78.8389Z" fill="#9C4668"/>
<path d="M936.021 117.065C939.75 113.667 940.089 107.891 936.699 104.153C935.682 103.134 934.666 102.284 933.479 101.774V84.2754C939.919 92.6002 947.546 96.1679 953.308 97.8669C953.647 99.3959 954.325 100.755 955.342 101.944C957.036 103.813 959.24 104.833 961.612 105.002C963.985 105.172 966.358 104.323 968.222 102.624C971.95 99.226 972.289 93.4497 968.9 89.712C967.205 87.8432 965.002 86.8238 962.629 86.6539C960.426 86.484 958.392 87.1636 956.528 88.5228C956.358 88.6926 956.189 88.8625 956.02 89.0324C955.342 89.712 954.664 90.3916 954.325 91.2411C949.24 89.5421 942.461 85.8045 937.038 77.4797C940.089 74.0818 940.258 68.8151 937.038 65.2474C933.818 61.6796 928.395 61.1699 924.666 64.0581C924.497 64.228 924.327 64.3979 924.158 64.5678C920.43 67.9657 920.091 73.742 923.48 77.4797C924.497 78.6689 925.683 79.3485 927.039 79.8582V101.605C926.192 101.944 925.344 102.284 924.666 102.964C924.497 103.134 924.327 103.303 924.158 103.473C922.294 105.172 921.277 107.381 921.107 109.759C920.938 112.138 921.785 114.516 923.48 116.385C926.531 119.953 932.293 120.293 936.021 117.065ZM959.409 92.6002C960.256 91.9206 961.273 91.4109 962.46 91.5808C963.646 91.5808 964.663 92.0905 965.341 92.94C966.866 94.6389 966.696 97.3572 965.002 98.8863C965.002 98.8863 964.832 99.0561 964.663 99.0561C963.815 99.7357 962.968 99.9056 961.951 99.9056C960.765 99.9056 959.748 99.3959 959.07 98.5465C958.392 97.697 957.884 96.6776 958.053 95.4884C958.053 94.469 958.562 93.4497 959.409 92.6002ZM927.378 68.3054C929.073 66.7764 931.784 66.9463 933.31 68.6452C934.835 70.3442 934.666 73.0625 932.971 74.5915L932.801 74.7614C931.106 76.1205 928.564 75.7808 927.209 74.2517C925.514 72.3829 925.683 69.8345 927.378 68.3054ZM925.853 109.929C925.853 108.74 926.361 107.721 927.209 107.041C928.903 105.512 931.615 105.682 933.14 107.381C934.666 109.08 934.496 111.798 932.801 113.327L932.632 113.497C930.937 114.856 928.395 114.516 927.039 112.987C926.192 112.138 925.683 110.949 925.853 109.929Z" fill="#9C4668"/>
<path d="M274.044 22.9437C274.044 22.2641 274.214 21.4147 274.553 20.7351H262.35V26.0018H274.553C274.044 25.1523 273.875 23.9631 274.044 22.9437Z" fill="#9C4668"/>
<path d="M290.991 23.963C290.991 24.6426 290.822 25.492 290.483 26.1716H302.685V20.9049H290.652C290.822 21.7544 290.991 22.7737 290.991 23.963Z" fill="#9C4668"/>
<path d="M293.534 23.4535C293.534 23.6234 293.534 23.9632 293.534 24.1331C293.365 27.1912 292.009 29.9095 289.806 31.7783C287.603 33.817 284.721 34.6665 281.84 34.4966C275.739 34.1568 270.994 28.8901 271.333 22.7739C271.502 19.7158 272.858 16.9975 275.061 15.1287C277.264 13.09 280.146 12.2405 283.027 12.4104C289.128 12.5803 293.534 17.5072 293.534 23.4535ZM276.587 23.4535C276.587 26.5116 278.959 29.06 282.179 29.3998C283.705 29.5697 285.23 28.8901 286.416 27.8707C287.603 26.8514 288.28 25.3223 288.45 23.7933C288.619 20.5653 286.247 17.847 283.027 17.5072L283.196 14.9588L283.027 17.5072C281.501 17.3373 279.976 18.0169 278.79 19.0363C277.603 20.0556 276.925 21.5847 276.756 23.1137C276.587 23.1137 276.587 23.2836 276.587 23.4535Z" fill="#9C4668"/>
<path d="M1031.1 302.249C1031.1 301.569 1031.27 300.719 1031.61 300.04H1019.4V305.307H1031.61C1031.27 304.457 1031.1 303.268 1031.1 302.249Z" fill="#9C4668"/>
<path d="M1048.05 303.268C1048.05 303.948 1047.88 304.797 1047.54 305.477H1059.74V300.21H1047.71C1048.05 301.059 1048.21 302.079 1048.05 303.268Z" fill="#9C4668"/>
<path d="M1050.76 302.758C1050.76 302.928 1050.76 303.268 1050.76 303.438C1050.59 306.496 1049.23 309.214 1047.03 311.083C1044.83 312.952 1041.94 313.971 1039.06 313.801C1032.96 313.462 1028.22 308.195 1028.56 302.079C1028.73 299.021 1030.08 296.302 1032.28 294.434C1034.49 292.395 1037.37 291.545 1040.25 291.715C1046.18 292.055 1050.76 296.812 1050.76 302.758ZM1033.81 302.758C1033.81 305.816 1036.18 308.365 1039.4 308.705C1040.93 308.875 1042.45 308.195 1043.64 307.176C1044.83 306.156 1045.5 304.627 1045.67 303.098C1045.84 299.87 1043.47 297.152 1040.25 296.812L1040.42 294.264L1040.25 296.812C1038.72 296.642 1037.2 297.322 1036.01 298.341C1034.83 299.36 1034.15 300.89 1033.98 302.419C1033.81 302.588 1033.81 302.588 1033.81 302.758Z" fill="#9C4668"/>
<path d="M142.7 319.918C142.7 319.238 142.869 318.389 143.208 317.709H131.006V322.976H143.208C142.7 322.127 142.53 320.937 142.7 319.918Z" fill="#9C4668"/>
<path d="M159.647 320.937C159.647 321.617 159.477 322.466 159.138 323.146H171.341V317.879H159.308C159.477 318.729 159.647 319.748 159.647 320.937Z" fill="#9C4668"/>
<path d="M162.189 320.428C162.189 320.598 162.189 320.937 162.189 321.107C162.02 324.165 160.664 326.884 158.461 328.752C156.258 330.791 153.377 331.641 150.495 331.471C144.394 331.131 139.649 325.864 139.988 319.748C140.157 316.69 141.513 313.972 143.716 312.103C145.92 310.234 148.801 309.215 151.682 309.385C157.614 309.554 162.189 314.481 162.189 320.428ZM145.242 320.428C145.242 323.486 147.614 326.034 150.834 326.374C152.36 326.544 153.885 325.864 155.071 324.845C156.258 323.826 156.936 322.296 157.105 320.767C157.275 317.539 154.902 314.821 151.682 314.481L151.851 311.763L151.682 314.481C150.157 314.311 148.631 314.991 147.445 316.01C146.259 317.03 145.581 318.559 145.411 320.088C145.242 320.258 145.242 320.258 145.242 320.428Z" fill="#9C4668"/>
<path d="M576.222 75.1013C576.222 74.4217 576.391 73.5723 576.73 72.8927H564.528V78.1594H576.73C576.391 77.14 576.222 76.1207 576.222 75.1013Z" fill="#9C4668"/>
<path d="M593.169 76.1207C593.169 76.8003 592.999 77.6497 592.66 78.3293H604.863V72.8927H592.83C593.169 73.9121 593.338 74.9314 593.169 76.1207Z" fill="#9C4668"/>
<path d="M595.881 75.6111C595.881 75.781 595.881 76.1208 595.881 76.2907C595.711 79.3488 594.355 82.0671 592.152 83.9359C589.949 85.9746 587.068 86.8241 584.187 86.6542C578.086 86.3144 573.34 81.0477 573.679 74.9315C573.849 71.8734 575.205 69.1551 577.408 67.2863C579.611 65.2476 582.492 64.3981 585.373 64.568C591.305 64.7379 595.881 69.6648 595.881 75.6111ZM578.933 75.6111C578.933 78.6692 581.306 81.2176 584.526 81.5574C586.051 81.7273 587.576 81.0477 588.763 80.0283C589.949 79.009 590.627 77.4799 590.796 75.9509C590.966 72.7229 588.593 70.0046 585.373 69.6648L585.543 67.1164L585.373 69.6648C583.848 69.4949 582.322 70.1745 581.136 71.1939C579.95 72.2132 579.272 73.7423 579.102 75.2713C578.933 75.2713 578.933 75.4412 578.933 75.6111Z" fill="#9C4668"/>
<path d="M407.253 76.4602C404.541 72.2129 398.779 71.0236 394.542 73.9118C392.508 75.271 391.153 77.3097 390.644 79.6882C390.136 82.0667 390.644 84.6151 392 86.6538C392.847 88.013 394.712 89.3721 396.237 89.7119V96.1679C396.237 98.0367 394.712 102.284 390.136 102.284H373.527V85.9743C374.713 85.4646 375.9 84.785 376.747 83.5958C380.137 79.8581 379.798 74.0817 376.069 70.6838C372.341 67.286 366.578 67.6258 363.189 71.3634C361.494 73.2322 360.816 75.6108 360.816 77.9893C360.816 80.3678 362.003 82.7463 363.867 84.2753C364.036 84.4452 364.206 84.6151 364.375 84.785C365.053 85.2947 365.9 85.8044 366.748 86.1442V107.891C365.392 108.4 364.206 109.25 363.189 110.269C359.799 114.007 360.138 119.783 363.867 123.181C364.036 123.351 364.206 123.521 364.375 123.691C368.104 126.579 373.527 126.069 376.747 122.501C379.798 118.934 379.798 113.497 376.747 110.269C376.239 109.759 375.9 109.42 375.561 109.08H389.966C398.779 109.08 402.677 101.604 402.677 96.5077V90.2216C403.185 90.0517 403.863 89.7119 404.372 89.3721C404.541 89.2022 404.711 89.0324 404.88 88.8625C406.575 87.5033 407.761 85.6345 408.27 83.4259C409.117 80.8775 408.609 78.4989 407.253 76.4602ZM365.9 77.6495C365.9 76.4602 366.239 75.4409 366.917 74.5914C368.443 72.8925 370.815 72.7226 372.51 74.0817C372.68 74.0817 372.68 74.2516 372.68 74.2516C374.374 75.7807 374.544 78.499 373.019 80.1979C371.493 81.8968 368.782 82.0667 367.087 80.5377C366.409 79.6882 365.9 78.6688 365.9 77.6495ZM373.357 118.934C371.832 120.633 369.29 120.802 367.426 119.273C365.731 117.744 365.562 115.026 367.087 113.327C368.612 111.628 370.985 111.458 372.68 112.817C372.849 112.817 372.849 112.987 372.849 112.987C374.713 114.516 374.883 117.235 373.357 118.934ZM403.694 82.4065C403.524 83.4259 402.846 84.4452 401.83 85.1248C400.982 85.8044 399.796 85.9743 398.61 85.8044C397.593 85.6345 396.576 84.9549 395.898 83.9355C395.22 83.0861 395.05 81.8968 395.22 80.7076C395.389 79.6882 395.898 78.8387 396.745 78.329C396.915 78.329 396.915 78.1592 397.084 78.1592C398.948 76.9699 401.66 77.4796 402.846 79.3484C403.694 80.1979 403.863 81.2172 403.694 82.4065Z" fill="#9C4668"/>
<path d="M95.7543 64.7375H92.5342V259.266H95.7543V64.7375Z" fill="#FF8AE2"/>
<path d="M169.646 64.7374H166.426V245.844H169.646V64.7374Z" fill="#FF8AE2"/>
<path d="M500.804 73.7419H497.584V266.741H500.804V73.7419Z" fill="#FF8AE2"/>
<path d="M835.352 75.9504H832.132V246.863H835.352V75.9504Z" fill="#FF8AE2"/>
<path d="M318.617 143.568H315.396V254.678H318.617V143.568Z" fill="#FF8AE2"/>
<path d="M629.438 143.568H626.218V254.678H629.438V143.568Z" fill="#FF8AE2"/>
<path d="M1078.04 138.131H1074.82V259.945H1078.04V138.131Z" fill="#FF8AE2"/>
<path d="M763.663 141.529H760.443V232.592H763.663V141.529Z" fill="#FF8AE2"/>
<path d="M888.567 143.568H885.347V234.631H888.567V143.568Z" fill="#FF8AE2"/>
<path d="M954.494 163.276H951.274V254.339H954.494V163.276Z" fill="#FF8AE2"/>
<path d="M710.956 162.256H707.736V253.319H710.956V162.256Z" fill="#FF8AE2"/>
<path d="M396.407 159.878H393.187V252.81H396.407V159.878Z" fill="#FF8AE2"/>
<path d="M264.215 161.916H260.995V251.96H264.215V161.916Z" fill="#FF8AE2"/>
<path d="M547.75 180.095H544.53V270.139H547.75V180.095Z" fill="#FF8AE2"/>
<path d="M95.7561 184.682L93.214 182.134L166.767 108.23L169.309 110.949L95.7561 184.682Z" fill="#FF8AE2"/>
<path d="M1053.3 238.369C1054.99 243.466 1058.72 247.203 1062.11 249.072V223.758C1053.98 232.253 1053.3 238.199 1053.3 238.369Z" fill="#FF8AE2"/>
<path d="M598.255 249.752C597.915 249.242 597.745 248.563 597.576 248.053C597.745 248.732 597.915 249.242 598.255 249.752Z" fill="#FF8AE2"/>
<path d="M612.659 218.491C594.356 232.932 598.254 249.752 598.254 249.752C601.135 255.868 607.236 259.436 612.829 261.475L612.659 218.491Z" fill="#FF8AE2"/>
<path d="M346.071 190.119V226.816C349.969 223.248 354.206 218.491 356.24 213.225C356.748 211.016 358.104 200.483 346.071 190.119Z" fill="#9C4668"/>
<path d="M234.556 341.664C234.556 341.664 246.419 347.101 243.538 378.022C242.182 391.613 249.47 404.185 249.47 404.185C249.47 404.185 227.607 398.918 224.557 382.439C222.184 370.037 232.691 357.634 234.556 341.664Z" fill="#93C2DB"/>
<path d="M212.693 66.6066C212.693 66.6066 238.115 46.899 226.252 11.731C226.252 11.731 211.677 16.8278 214.219 32.1182C216.93 49.1076 217.1 59.641 212.693 66.6066Z" fill="#93C2DB"/>
<path d="M1045.33 205.579C1045.33 205.579 1033.98 171.431 1067.03 145.947C1067.03 145.947 1076.35 158.859 1065.5 172.45C1054.65 186.042 1045.5 196.405 1045.33 205.579Z" fill="#93C2DB"/>
<path d="M592.322 202.861C592.322 202.861 580.12 170.921 603.508 157.33C603.508 157.33 606.219 163.276 605.033 173.13C603.677 183.493 596.898 185.022 592.322 202.861Z" fill="#93C2DB"/>
<path d="M409.795 70.1745C409.795 70.1745 418.099 48.2582 437.759 54.2045C437.759 54.0346 432.505 74.2519 409.795 70.1745Z" fill="#93C2DB"/>
<path d="M386.576 63.7185C386.576 63.7185 371.493 47.5786 387.424 31.4387C387.593 31.4387 401.321 44.3506 386.576 63.7185Z" fill="#93C2DB"/>
<path d="M356.749 70.1744C356.749 70.1744 334.717 73.7422 327.429 56.9227C327.26 56.9227 348.105 49.6173 356.749 70.1744Z" fill="#93C2DB"/>
<path d="M705.703 328.582C705.703 328.582 714.007 306.666 733.666 312.612C733.666 312.612 728.413 332.83 705.703 328.582Z" fill="#93C2DB"/>
<path d="M682.484 322.296C682.484 322.296 667.4 306.157 683.331 290.017C683.331 290.017 697.228 302.929 682.484 322.296Z" fill="#93C2DB"/>
<path d="M652.656 328.752C652.656 328.752 630.624 332.32 623.337 315.501C623.167 315.331 644.013 308.026 652.656 328.752Z" fill="#93C2DB"/>
<path d="M931.615 49.7872C931.615 49.7872 923.31 32.1183 937.546 18.0171C937.377 18.0171 949.071 32.9677 931.615 49.7872Z" fill="#93C2DB"/>
<path d="M919.243 52.3356C919.243 52.3356 899.753 51.3163 894.16 31.9484C894.16 31.9484 912.803 28.8903 919.243 52.3356Z" fill="#93C2DB"/>
<path d="M461.825 621.139C461.825 621.139 443.013 630.993 430.132 615.193C430.132 615.193 447.927 604.15 461.825 621.139Z" fill="#93C2DB"/>
<path d="M470.638 633.542C470.638 633.542 469.79 655.458 450.3 658.686C450.3 658.516 448.775 637.789 470.638 633.542Z" fill="#93C2DB"/>
<path d="M717.057 548.255C717.057 548.255 734.683 539.93 748.749 554.201C748.749 554.031 733.835 565.754 717.057 548.255Z" fill="#93C2DB"/>
<path d="M714.515 535.853C714.515 535.853 715.532 516.315 734.852 510.708C734.682 510.708 737.902 529.397 714.515 535.853Z" fill="#93C2DB"/>
<path d="M1119.9 301.4C1119.9 301.4 1139.39 307.346 1138.21 328.073C1138.21 327.903 1116.17 325.694 1119.9 301.4Z" fill="#93C2DB"/>
<path d="M1123.46 290.866C1123.46 290.866 1136 275.576 1155.49 287.468C1155.49 287.468 1144.48 302.759 1123.46 290.866Z" fill="#93C2DB"/>
<path d="M30.6753 92.0907C30.6753 92.0907 21.0151 110.609 0 101.944C0 101.944 8.47385 81.5573 30.6753 92.0907Z" fill="#93C2DB"/>
<path d="M39.9966 98.8865C39.9966 98.8865 55.08 115.876 39.9966 131.166C39.8271 131.166 23.8963 114.177 39.9966 98.8865Z" fill="#93C2DB"/>
<path d="M675.366 24.3031C675.366 24.3031 656.384 20.2256 653.842 0.348116C653.673 0.348116 672.654 0.17822 675.366 24.3031Z" fill="#93C2DB"/>
<path d="M669.773 35.686C669.773 35.686 657.062 50.4667 638.42 43.3312C638.589 43.3312 647.402 26.5117 669.773 35.686Z" fill="#93C2DB"/>
<path d="M991.101 229.365C991.101 229.365 994.66 223.079 995.846 216.792C998.05 206.259 999.067 195.726 1011.78 195.216C1011.95 195.216 1012.29 224.098 991.101 229.365Z" fill="#93C2DB"/>
<path d="M915.854 373.265C915.854 373.265 928.056 353.727 949.41 351.518C975.679 348.97 984.492 333.679 989.407 324.505C989.407 324.505 953.308 323.995 939.242 331.811C924.836 339.796 920.769 348.8 915.854 373.265Z" fill="#93C2DB"/>
<path d="M528.768 268.44C529.785 256.887 529.785 228.175 526.904 215.433C523.175 198.444 519.786 198.954 517.582 199.803C515.379 200.652 515.888 203.031 514.701 204.39C513.346 205.749 511.312 207.448 508.6 202.012C505.889 196.405 503.855 180.435 498.771 174.829C493.517 169.052 490.127 178.396 487.755 180.605C485.382 182.814 485.043 184.343 478.433 179.925C471.824 175.508 453.859 166.334 446.233 172.28C438.776 178.227 446.911 185.702 449.283 187.231C454.198 190.459 469.959 195.386 471.146 198.104C473.18 203.031 462.503 203.541 460.469 207.108C458.435 210.676 461.147 214.414 466.062 215.603C470.976 216.792 484.196 214.244 489.788 215.603C495.212 216.962 494.025 218.831 492.161 220.02C491.144 220.7 481.653 225.967 483.179 230.554C484.873 235.99 490.297 237.689 503.516 236.5C513.515 235.651 520.972 242.786 523.175 248.562C525.378 254.509 528.768 268.44 528.768 268.44Z" fill="#93C2DB"/>
<path d="M461.994 178.227C460.977 177.547 459.96 177.037 459.621 176.867L457.757 178.057C457.757 178.057 458.096 178.397 460.808 179.926C503.855 205.749 521.65 233.102 529.107 252.81C529.107 251.111 529.107 249.412 529.107 247.713C520.803 228.005 502.33 202.352 461.994 178.227Z" fill="#FF8AE2"/>
<path d="M746.715 194.706C746.715 194.706 743.834 168.373 748.24 147.306C750.952 134.564 759.426 117.744 771.459 104.153C785.017 89.0324 789.762 86.484 792.813 86.484C794.169 86.484 793.321 88.5227 792.813 90.5615C791.457 95.4884 790.271 99.226 788.745 106.022C785.864 119.783 788.745 125.22 784.509 132.185C782.136 136.263 767.9 141.53 771.628 146.626C773.832 149.515 785.525 137.792 788.745 141.699C791.965 145.437 785.695 162.936 777.221 168.203C752.986 182.984 746.715 194.706 746.715 194.706Z" fill="#93C2DB"/>
<path d="M841.792 364.94V351.518H765.866V374.284H779.594V388.555H765.866H765.527V402.656H751.8H793.491V388.555H855.18V364.94H841.792Z" fill="#93C2DB"/>
<path d="M512.329 409.622H498.262V377.172H477.078V491.85H490.805V477.749H512.329V464.497V437.144H537.92V426.441H558.088V409.622H512.329Z" fill="#93C2DB"/>
<path d="M702.821 461.269H688.754V475.37H702.821V461.269Z" fill="#93C2DB"/>
<path d="M567.747 464.497H553.681V478.598H567.747V464.497Z" fill="#93C2DB"/>
<path d="M581.814 478.598H567.748V492.699H581.814V478.598Z" fill="#93C2DB"/>
<path d="M674.687 503.743V489.472H688.754V475.371H676.382V444.62H660.112V475.371H620.624V488.452H607.405V503.743H626.217H674.687Z" fill="#93C2DB"/>
<path d="M635.369 365.789H621.302V379.89H635.369V365.789Z" fill="#93C2DB"/>
<path d="M649.435 351.518H635.369V365.619H649.435V351.518Z" fill="#93C2DB"/>
<path d="M450.47 366.638H430.472V377.342H450.47V366.638Z" fill="#93C2DB"/>
<path d="M387.085 383.288H373.019V369.187H358.952V383.288H373.019V409.791V437.144H435.895V409.791H387.085V383.288ZM401.321 422.873V436.974H387.255V422.873H401.321Z" fill="#93C2DB"/>
<path d="M756.414 468.341V456.448H744.55V468.341H756.414Z" fill="#93C2DB"/>
<path d="M353.021 328.582H340.31V340.815H353.021V328.582Z" fill="#93C2DB"/>
<path d="M550.292 37.062V24.6598L537.92 24.6598V37.062H550.292Z" fill="#93C2DB"/>
<path d="M782.114 53.0326V40.6304H769.742V53.0326H782.114Z" fill="#93C2DB"/>
<path d="M1170 225.063V212.661H1157.63V225.063H1170Z" fill="#93C2DB"/>
<path d="M742.544 613.176H754.916V600.774H742.544V613.176Z" fill="#93C2DB"/>
<path d="M535.137 658.399H547.509V645.997H535.137V658.399Z" fill="#93C2DB"/>
<path d="M799.121 294.447V282.554H787.258V294.447H799.121Z" fill="#93C2DB"/>
<path d="M919.588 313.803V301.91H907.725V313.803H919.588Z" fill="#93C2DB"/>
<path d="M459.922 303.159H471.786V291.266H459.922V303.159Z" fill="#93C2DB"/>
<path d="M441.069 508.119V496.226H429.206V508.119H441.069Z" fill="#93C2DB"/>
<path d="M793.491 388.555V402.656H775.526V503.743H797.219V490.491H810.439V388.555H793.491Z" fill="#9C4668"/>
<path d="M649.436 351.518V365.789H635.369V379.89H621.303H607.236V430.349V416.417H621.472V423.213H639.098V416.417V388.555H686.043V377.342H698.415V351.518H649.436Z" fill="#9C4668"/>
<path d="M471.854 315.12H483.718V303.227H471.854V315.12Z" fill="#FF8AE2"/>
<path d="M553.342 364.26V351.518H504.533V340.815H469.62V377.172H498.262V409.622H512.329V386.346H526.734V364.26H553.342Z" fill="#9C4668"/>
<path d="M373.019 451.246V437.144V409.622V383.288H358.952V369.187H373.019V354.916H387.085V351.518V340.985H353.021V355.426V356.955V495.928H387.085V451.246H373.019Z" fill="#9C4668"/>
<path d="M353.021 495.927H340.31V508.16H353.021V495.927Z" fill="#9C4668"/>
<path d="M854.842 351.518H841.622V364.77H854.842V351.518Z" fill="#9C4668"/>
<path d="M868.061 364.94H854.841V388.555H868.061V364.94Z" fill="#9C4668"/>
<path d="M868.061 338.266H854.841V351.518H868.061V338.266Z" fill="#9C4668"/>
<path d="M688.754 489.471H674.688V503.573H688.754V489.471Z" fill="#9C4668"/>
<path d="M512.329 491.85H490.805V503.743H512.329V491.85Z" fill="#9C4668"/>
<path d="M12.3721 143.628L12.3721 131.225H0.000247955L0.000247955 143.628H12.3721Z" fill="#FF8AE2"/>
<path d="M359.203 22.2737V9.87146L346.832 9.87146V22.2737H359.203Z" fill="#FF8AE2"/>
<path d="M1151.52 82.1469V69.7447H1139.15V82.1469H1151.52Z" fill="#FF8AE2"/>
<path d="M1041.03 360.1H1053.4V347.698H1041.03V360.1Z" fill="#FF8AE2"/>
<path d="M1053.12 348.148H1065.49V335.746H1053.12V348.148Z" fill="#FF8AE2"/>
<path d="M290.744 450.766H303.116V438.364H290.744V450.766Z" fill="#FF8AE2"/>
<path d="M427.423 569.659H439.795V557.257H427.423V569.659Z" fill="#FF8AE2"/>
<path d="M595.031 516.069H607.403V503.667H595.031V516.069Z" fill="#FF8AE2"/>
<path d="M809.885 326.391V314.499H798.021V326.391H809.885Z" fill="#FF8AE2"/>
<path d="M907.556 325.764V313.872H895.692V325.764H907.556Z" fill="#FF8AE2"/>
<path d="M584.526 351.518H553.342V364.26H526.734V386.346H570.29V371.735H584.526V351.518Z" fill="#FF8AE2"/>
<path d="M597.236 339.455H584.526V351.688H597.236V339.455Z" fill="#FF8AE2"/>
<path d="M988.559 32.4579H975.34V45.7096H988.559V32.4579Z" fill="#FF8AE2"/>
<path d="M823.658 503.743H810.438V516.994H823.658V503.743Z" fill="#FF8AE2"/>
<path d="M810.439 490.491H797.219V503.743H810.439V490.491Z" fill="#FF8AE2"/>
<path d="M702.821 461.269V435.106H693.5V423.213H621.472V416.417H607.236V430.518H621.303V444.62H660.113H667.57H676.383V475.37H688.754V461.269H702.821Z" fill="#FF8AE2"/>
<path d="M635.369 351.518H621.302V365.619H635.369V351.518Z" fill="#FF8AE2"/>
<path d="M621.302 365.789H607.236V379.89H621.302V365.789Z" fill="#FF8AE2"/>
<path d="M557.918 426.441H537.919V437.144H557.918V426.441Z" fill="#FF8AE2"/>
<path d="M340.31 508.16H327.091V521.412H340.31V508.16Z" fill="#FF8AE2"/>
<path d="M401.151 422.873H387.085V436.974H401.151V422.873Z" fill="#FF8AE2"/>
<path d="M387.085 437.144H373.019V451.245H387.085V437.144Z" fill="#FF8AE2"/>
<path d="M416.405 351.518V340.815H401.321H387.085V354.916H373.019V383.288H387.085V377.342H430.471V366.638H450.639V351.518H416.405Z" fill="#FF8AE2"/>
<path d="M793.661 360.183H779.594V374.284H793.661V360.183Z" fill="#FF8AE2"/>
<path d="M765.866 374.284V351.518H719.599V388.555H751.461V402.656H765.527V388.555H765.866H779.594V374.284H765.866Z" fill="#FF8AE2"/>
<path d="M567.748 492.699V478.598H553.681V464.497H512.329V477.749H490.805V491.85H512.329V495.927V503.743H581.984V492.699H567.748Z" fill="#FF8AE2"/>
<path d="M702.821 475.37H688.754V489.472H702.821V475.37Z" fill="#9C4668"/>
<path d="M769.572 65.5274V53.1252H757.2V65.5274H769.572Z" fill="#9C4668"/>
<path d="M58.816 179.979V167.577H46.4442V179.979H58.816Z" fill="#9C4668"/>
<path d="M387.163 308.959V296.557H374.791V308.959H387.163Z" fill="#9C4668"/>
<path d="M248.895 305.094V292.692H236.523V305.094H248.895Z" fill="#9C4668"/>
<path d="M1157.63 237.558V225.156H1145.26V237.558H1157.63Z" fill="#9C4668"/>
<path d="M730.257 600.688H742.629V588.286H730.257V600.688Z" fill="#9C4668"/>
<path d="M855.311 453.387H867.683V440.985H855.311V453.387Z" fill="#9C4668"/>
<path d="M522.672 646.074H535.044V633.672H522.672V646.074Z" fill="#FF8AE2"/>
<path d="M744.38 480.132V468.239H732.517V480.132H744.38Z" fill="#9C4668"/>
<path d="M552.664 316.18H539.445V329.432H552.664V316.18Z" fill="#9C4668"/>
<path d="M429.206 520.08V508.188H417.342V520.08H429.206Z" fill="#9C4668"/>
<path d="M637.742 608.907L629.607 600.752L616.049 614.343H607.575V583.593L614.863 576.287L617.574 573.569L620.455 570.851L626.048 565.244V556.75V542.818L614.015 530.926L597.406 547.575L600.287 550.294L608.592 541.969L614.863 548.425V570.681L597.915 587.67L596.559 589.029V616.892H607.575H627.404H629.607L637.742 608.907Z" fill="#9C4668"/>
<path d="M626.047 556.75V565.244L620.455 570.851L617.574 573.569L614.862 576.287L607.574 583.593V614.343H612.15V583.593L619.438 576.287L621.98 573.569L624.861 570.851L630.454 565.244V556.75V542.818L618.421 530.926H614.015L626.047 542.818V556.75Z" fill="#FF8AE2"/>
<path d="M634.182 600.752H629.606L637.741 608.907L629.606 616.892H634.182L642.148 608.907L634.182 600.752Z" fill="#FF8AE2"/>
<path d="M610.794 544.347L608.591 541.969L600.287 550.293H604.693L610.794 544.347Z" fill="#FF8AE2"/>
<path d="M682.145 580.025V597.864H669.943V592.767V579.345H661.299V553.691H645.707V592.767H653.673V617.911H665.536H669.943H690.788V605.849V597.864V580.025H682.145Z" fill="#93C2DB"/>
<path d="M697.228 553.522V542.988H686.043V553.692H682.145V580.025H690.788V597.864V604.999H697.228V592.767H702.652V553.522H697.228Z" fill="#FF8AE2"/>
<path d="M689.432 531.435H662.993V537.891H653.672V553.691H661.299V579.345H669.942V553.691H686.042V542.988H689.432V531.435Z" fill="#9C4668"/>
<path d="M519.108 608.907L510.973 600.752L497.415 614.343H488.941V583.593L496.229 576.287L498.94 573.569L501.821 570.851L507.414 565.244V556.75V542.818L495.381 530.926L478.772 547.575L481.654 550.294L489.958 541.969L496.229 548.425V570.681L479.281 587.67L477.925 589.029V616.892H488.941H508.77H510.973L519.108 608.907Z" fill="#9C4668"/>
<path d="M507.413 556.75V565.244L501.821 570.851L498.94 573.569L496.228 576.287L488.94 583.593V614.343H493.516V583.593L500.804 576.287L503.346 573.569L506.227 570.851L511.82 565.244V556.75V542.818L499.787 530.926H495.381L507.413 542.818V556.75Z" fill="#FF8AE2"/>
<path d="M492.161 544.347L489.957 541.969L481.653 550.293H486.059L492.161 544.347Z" fill="#FF8AE2"/>
<path d="M515.548 600.752H510.972L519.107 608.907L510.972 616.892H515.548L523.514 608.907L515.548 600.752Z" fill="#FF8AE2"/>
<path d="M563.511 580.025V597.864H551.309V592.767V579.345H542.665V553.691H527.073V592.767H535.039V617.911H546.902H551.309H572.154V605.849V597.864V580.025H563.511Z" fill="#93C2DB"/>
<path d="M578.594 553.522V542.988H567.409V553.692H563.511V580.025H572.154V597.864V604.999H578.594V592.767H584.018V553.522H578.594Z" fill="#FF8AE2"/>
<path d="M570.798 531.435H544.36V537.891H535.038V553.691H542.665V579.345H551.308V553.691H567.408V542.988H570.798V531.435Z" fill="#9C4668"/>
<path d="M505.889 370.206C506.357 370.206 506.736 369.826 506.736 369.357C506.736 368.888 506.357 368.507 505.889 368.507C505.421 368.507 505.042 368.888 505.042 369.357C505.042 369.826 505.421 370.206 505.889 370.206Z" fill="#FF8AE2"/>
<path d="M504.024 392.462C504.492 392.462 504.871 392.082 504.871 391.613C504.871 391.144 504.492 390.763 504.024 390.763C503.556 390.763 503.177 391.144 503.177 391.613C503.177 392.082 503.556 392.462 504.024 392.462Z" fill="#FF8AE2"/>
<path d="M507.753 404.525C508.221 404.525 508.6 404.144 508.6 403.675C508.6 403.206 508.221 402.826 507.753 402.826C507.285 402.826 506.906 403.206 506.906 403.675C506.906 404.144 507.285 404.525 507.753 404.525Z" fill="#FF8AE2"/>
<path d="M503.347 382.269C503.815 382.269 504.194 381.888 504.194 381.419C504.194 380.95 503.815 380.57 503.347 380.57C502.879 380.57 502.499 380.95 502.499 381.419C502.499 381.888 502.879 382.269 503.347 382.269Z" fill="#FF8AE2"/>
<path d="M510.973 361.881C511.441 361.881 511.821 361.501 511.821 361.032C511.821 360.563 511.441 360.183 510.973 360.183C510.505 360.183 510.126 360.563 510.126 361.032C510.126 361.501 510.505 361.881 510.973 361.881Z" fill="#FF8AE2"/>
<path d="M494.365 352.537C494.833 352.537 495.212 352.157 495.212 351.688C495.212 351.219 494.833 350.838 494.365 350.838C493.897 350.838 493.517 351.219 493.517 351.688C493.517 352.157 493.897 352.537 494.365 352.537Z" fill="#FF8AE2"/>
<path d="M518.43 381.249C518.898 381.249 519.277 380.869 519.277 380.4C519.277 379.931 518.898 379.551 518.43 379.551C517.962 379.551 517.582 379.931 517.582 380.4C517.582 380.869 517.962 381.249 518.43 381.249Z" fill="#FF8AE2"/>
<path d="M530.463 357.634C530.931 357.634 531.31 357.254 531.31 356.785C531.31 356.315 530.931 355.935 530.463 355.935C529.995 355.935 529.616 356.315 529.616 356.785C529.616 357.254 529.995 357.634 530.463 357.634Z" fill="#FF8AE2"/>
<path d="M546.903 360.862C547.371 360.862 547.75 360.482 547.75 360.013C547.75 359.544 547.371 359.163 546.903 359.163C546.435 359.163 546.055 359.544 546.055 360.013C546.055 360.482 546.435 360.862 546.903 360.862Z" fill="#FF8AE2"/>
<path d="M477.078 365.109C477.546 365.109 477.925 364.729 477.925 364.26C477.925 363.791 477.546 363.411 477.078 363.411C476.61 363.411 476.23 363.791 476.23 364.26C476.23 364.729 476.61 365.109 477.078 365.109Z" fill="#FF8AE2"/>
<path d="M490.128 372.585C490.596 372.585 490.975 372.204 490.975 371.735C490.975 371.266 490.596 370.886 490.128 370.886C489.66 370.886 489.28 371.266 489.28 371.735C489.28 372.204 489.66 372.585 490.128 372.585Z" fill="#FF8AE2"/>
<path d="M488.263 361.542C488.731 361.542 489.11 361.161 489.11 360.692C489.11 360.223 488.731 359.843 488.263 359.843C487.795 359.843 487.416 360.223 487.416 360.692C487.416 361.161 487.795 361.542 488.263 361.542Z" fill="#FF8AE2"/>
<path d="M475.891 349.649C476.359 349.649 476.739 349.269 476.739 348.8C476.739 348.331 476.359 347.95 475.891 347.95C475.423 347.95 475.044 348.331 475.044 348.8C475.044 349.269 475.423 349.649 475.891 349.649Z" fill="#FF8AE2"/>
<path d="M517.582 367.148C518.05 367.148 518.43 366.768 518.43 366.299C518.43 365.83 518.05 365.449 517.582 365.449C517.114 365.449 516.735 365.83 516.735 366.299C516.735 366.768 517.114 367.148 517.582 367.148Z" fill="#FF8AE2"/>
<path d="M614.354 394.331C614.822 394.331 615.201 393.951 615.201 393.482C615.201 393.013 614.822 392.632 614.354 392.632C613.886 392.632 613.507 393.013 613.507 393.482C613.507 393.951 613.886 394.331 614.354 394.331Z" fill="#FF8AE2"/>
<path d="M661.808 369.527C662.276 369.527 662.655 369.146 662.655 368.677C662.655 368.208 662.276 367.828 661.808 367.828C661.34 367.828 660.96 368.208 660.96 368.677C660.96 369.146 661.34 369.527 661.808 369.527Z" fill="#FF8AE2"/>
<path d="M630.963 408.602C631.431 408.602 631.81 408.222 631.81 407.753C631.81 407.284 631.431 406.903 630.963 406.903C630.495 406.903 630.115 407.284 630.115 407.753C630.115 408.222 630.495 408.602 630.963 408.602Z" fill="#FF8AE2"/>
<path d="M624.014 401.297C624.482 401.297 624.862 400.916 624.862 400.447C624.862 399.978 624.482 399.598 624.014 399.598C623.546 399.598 623.167 399.978 623.167 400.447C623.167 400.916 623.546 401.297 624.014 401.297Z" fill="#FF8AE2"/>
<path d="M632.827 419.645C633.295 419.645 633.675 419.265 633.675 418.796C633.675 418.327 633.295 417.947 632.827 417.947C632.359 417.947 631.98 418.327 631.98 418.796C631.98 419.265 632.359 419.645 632.827 419.645Z" fill="#FF8AE2"/>
<path d="M676.552 379.041C677.02 379.041 677.4 378.661 677.4 378.191C677.4 377.722 677.02 377.342 676.552 377.342C676.084 377.342 675.705 377.722 675.705 378.191C675.705 378.661 676.084 379.041 676.552 379.041Z" fill="#FF8AE2"/>
<path d="M615.204 411.49C615.672 411.49 616.051 411.11 616.051 410.641C616.051 410.172 615.672 409.792 615.204 409.792C614.736 409.792 614.356 410.172 614.356 410.641C614.356 411.11 614.736 411.49 615.204 411.49Z" fill="#FF8AE2"/>
<path d="M660.96 382.269C661.428 382.269 661.808 381.888 661.808 381.419C661.808 380.95 661.428 380.57 660.96 380.57C660.492 380.57 660.113 380.95 660.113 381.419C660.113 381.888 660.492 382.269 660.96 382.269Z" fill="#FF8AE2"/>
<path d="M681.467 365.279C681.935 365.279 682.314 364.899 682.314 364.43C682.314 363.961 681.935 363.581 681.467 363.581C680.999 363.581 680.619 363.961 680.619 364.43C680.619 364.899 680.999 365.279 681.467 365.279Z" fill="#FF8AE2"/>
<path d="M689.093 359.333C689.561 359.333 689.941 358.953 689.941 358.484C689.941 358.014 689.561 357.634 689.093 357.634C688.625 357.634 688.246 358.014 688.246 358.484C688.246 358.953 688.625 359.333 689.093 359.333Z" fill="#FF8AE2"/>
<path d="M646.555 372.585C647.023 372.585 647.402 372.205 647.402 371.735C647.402 371.266 647.023 370.886 646.555 370.886C646.087 370.886 645.707 371.266 645.707 371.735C645.707 372.205 646.087 372.585 646.555 372.585Z" fill="#FF8AE2"/>
<path d="M620.625 385.837C621.093 385.837 621.472 385.456 621.472 384.987C621.472 384.518 621.093 384.138 620.625 384.138C620.157 384.138 619.778 384.518 619.778 384.987C619.778 385.456 620.157 385.837 620.625 385.837Z" fill="#FF8AE2"/>
<path d="M669.095 360.862C669.563 360.862 669.942 360.482 669.942 360.013C669.942 359.544 669.563 359.163 669.095 359.163C668.627 359.163 668.248 359.544 668.248 360.013C668.248 360.482 668.627 360.862 669.095 360.862Z" fill="#FF8AE2"/>
<path d="M653.673 357.634C654.141 357.634 654.52 357.254 654.52 356.785C654.52 356.316 654.141 355.935 653.673 355.935C653.205 355.935 652.825 356.316 652.825 356.785C652.825 357.254 653.205 357.634 653.673 357.634Z" fill="#FF8AE2"/>
<path d="M631.81 392.123C632.278 392.123 632.657 391.742 632.657 391.273C632.657 390.804 632.278 390.424 631.81 390.424C631.342 390.424 630.963 390.804 630.963 391.273C630.963 391.742 631.342 392.123 631.81 392.123Z" fill="#FF8AE2"/>
<path d="M802.304 457.361C802.772 457.361 803.151 456.981 803.151 456.512C803.151 456.043 802.772 455.662 802.304 455.662C801.836 455.662 801.456 456.043 801.456 456.512C801.456 456.981 801.836 457.361 802.304 457.361Z" fill="#FF8AE2"/>
<path d="M801.117 426.101C801.585 426.101 801.964 425.721 801.964 425.252C801.964 424.783 801.585 424.402 801.117 424.402C800.649 424.402 800.27 424.783 800.27 425.252C800.27 425.721 800.649 426.101 801.117 426.101Z" fill="#FF8AE2"/>
<path d="M801.286 402.316C801.754 402.316 802.134 401.936 802.134 401.467C802.134 400.998 801.754 400.617 801.286 400.617C800.818 400.617 800.439 400.998 800.439 401.467C800.439 401.936 800.818 402.316 801.286 402.316Z" fill="#FF8AE2"/>
<path d="M797.897 441.222C798.365 441.222 798.744 440.841 798.744 440.372C798.744 439.903 798.365 439.523 797.897 439.523C797.429 439.523 797.049 439.903 797.049 440.372C797.049 440.841 797.429 441.222 797.897 441.222Z" fill="#FF8AE2"/>
<path d="M789.932 482.336C790.4 482.336 790.779 481.956 790.779 481.487C790.779 481.017 790.4 480.637 789.932 480.637C789.464 480.637 789.084 481.017 789.084 481.487C789.084 481.956 789.464 482.336 789.932 482.336Z" fill="#FF8AE2"/>
<path d="M785.864 495.927C786.332 495.927 786.712 495.547 786.712 495.078C786.712 494.609 786.332 494.229 785.864 494.229C785.396 494.229 785.017 494.609 785.017 495.078C785.017 495.547 785.396 495.927 785.864 495.927Z" fill="#FF8AE2"/>
<path d="M789.932 414.548C790.4 414.548 790.779 414.168 790.779 413.699C790.779 413.23 790.4 412.849 789.932 412.849C789.464 412.849 789.084 413.23 789.084 413.699C789.084 414.168 789.464 414.548 789.932 414.548Z" fill="#FF8AE2"/>
<path d="M803.828 479.957C804.296 479.957 804.676 479.577 804.676 479.108C804.676 478.639 804.296 478.258 803.828 478.258C803.36 478.258 802.981 478.639 802.981 479.108C802.981 479.577 803.36 479.957 803.828 479.957Z" fill="#FF8AE2"/>
<path d="M790.948 456.852C791.416 456.852 791.796 456.472 791.796 456.002C791.796 455.533 791.416 455.153 790.948 455.153C790.48 455.153 790.101 455.533 790.101 456.002C790.101 456.472 790.48 456.852 790.948 456.852Z" fill="#FF8AE2"/>
<path d="M783.83 471.123C784.298 471.123 784.678 470.743 784.678 470.273C784.678 469.804 784.298 469.424 783.83 469.424C783.362 469.424 782.983 469.804 782.983 470.273C782.983 470.743 783.362 471.123 783.83 471.123Z" fill="#FF8AE2"/>
<path d="M781.627 429.159C782.095 429.159 782.475 428.779 782.475 428.31C782.475 427.841 782.095 427.46 781.627 427.46C781.159 427.46 780.78 427.841 780.78 428.31C780.78 428.779 781.159 429.159 781.627 429.159Z" fill="#FF8AE2"/>
<path d="M357.766 491.68C358.234 491.68 358.613 491.3 358.613 490.831C358.613 490.362 358.234 489.981 357.766 489.981C357.298 489.981 356.918 490.362 356.918 490.831C356.918 491.3 357.298 491.68 357.766 491.68Z" fill="#FF8AE2"/>
<path d="M383.018 487.093C383.486 487.093 383.866 486.713 383.866 486.244C383.866 485.775 383.486 485.394 383.018 485.394C382.55 485.394 382.171 485.775 382.171 486.244C382.171 486.713 382.55 487.093 383.018 487.093Z" fill="#FF8AE2"/>
<path d="M358.615 395.691C359.083 395.691 359.462 395.31 359.462 394.841C359.462 394.372 359.083 393.992 358.615 393.992C358.147 393.992 357.768 394.372 357.768 394.841C357.768 395.31 358.147 395.691 358.615 395.691Z" fill="#FF8AE2"/>
<path d="M366.578 363.75C367.047 363.75 367.426 363.37 367.426 362.901C367.426 362.432 367.047 362.052 366.578 362.052C366.11 362.052 365.731 362.432 365.731 362.901C365.731 363.37 366.11 363.75 366.578 363.75Z" fill="#FF8AE2"/>
<path d="M380.984 348.63C381.452 348.63 381.831 348.25 381.831 347.78C381.831 347.311 381.452 346.931 380.984 346.931C380.516 346.931 380.136 347.311 380.136 347.78C380.136 348.25 380.516 348.63 380.984 348.63Z" fill="#FF8AE2"/>
<path d="M361.155 446.998C361.623 446.998 362.002 446.618 362.002 446.149C362.002 445.68 361.623 445.299 361.155 445.299C360.687 445.299 360.308 445.68 360.308 446.149C360.308 446.618 360.687 446.998 361.155 446.998Z" fill="#FF8AE2"/>
<path d="M360.477 481.147C360.945 481.147 361.324 480.766 361.324 480.297C361.324 479.828 360.945 479.448 360.477 479.448C360.009 479.448 359.63 479.828 359.63 480.297C359.63 480.766 360.009 481.147 360.477 481.147Z" fill="#FF8AE2"/>
<path d="M363.697 421.344C364.165 421.344 364.545 420.964 364.545 420.495C364.545 420.026 364.165 419.645 363.697 419.645C363.229 419.645 362.85 420.026 362.85 420.495C362.85 420.964 363.229 421.344 363.697 421.344Z" fill="#FF8AE2"/>
<path d="M373.188 473.671C373.656 473.671 374.035 473.291 374.035 472.822C374.035 472.353 373.656 471.973 373.188 471.973C372.72 471.973 372.34 472.353 372.34 472.822C372.34 473.291 372.72 473.671 373.188 473.671Z" fill="#FF8AE2"/>
<path d="M368.273 485.734C368.741 485.734 369.121 485.354 369.121 484.885C369.121 484.415 368.741 484.035 368.273 484.035C367.805 484.035 367.426 484.415 367.426 484.885C367.426 485.354 367.805 485.734 368.273 485.734Z" fill="#FF8AE2"/>
<path d="M372.51 347.271C372.978 347.271 373.358 346.89 373.358 346.421C373.358 345.952 372.978 345.572 372.51 345.572C372.042 345.572 371.663 345.952 371.663 346.421C371.663 346.89 372.042 347.271 372.51 347.271Z" fill="#FF8AE2"/>
<path d="M368.103 454.643C368.571 454.643 368.951 454.263 368.951 453.794C368.951 453.325 368.571 452.944 368.103 452.944C367.635 452.944 367.256 453.325 367.256 453.794C367.256 454.263 367.635 454.643 368.103 454.643Z" fill="#FF8AE2"/>
<path d="M379.967 460.929C380.435 460.929 380.814 460.549 380.814 460.08C380.814 459.611 380.435 459.23 379.967 459.23C379.499 459.23 379.12 459.611 379.12 460.08C379.12 460.549 379.499 460.929 379.967 460.929Z" fill="#FF8AE2"/>
<path d="M358.615 349.989C359.083 349.989 359.462 349.609 359.462 349.14C359.462 348.67 359.083 348.29 358.615 348.29C358.147 348.29 357.768 348.67 357.768 349.14C357.768 349.609 358.147 349.989 358.615 349.989Z" fill="#FF8AE2"/>
<path d="M362.172 435.445C362.64 435.445 363.019 435.065 363.019 434.596C363.019 434.127 362.64 433.746 362.172 433.746C361.704 433.746 361.324 434.127 361.324 434.596C361.324 435.065 361.704 435.445 362.172 435.445Z" fill="#FF8AE2"/>
<path d="M657.74 544.007C658.302 544.007 658.757 543.551 658.757 542.988C658.757 542.425 658.302 541.969 657.74 541.969C657.178 541.969 656.723 542.425 656.723 542.988C656.723 543.551 657.178 544.007 657.74 544.007Z" fill="#FF8AE2"/>
<path d="M677.399 536.362C677.961 536.362 678.416 535.906 678.416 535.343C678.416 534.78 677.961 534.323 677.399 534.323C676.838 534.323 676.382 534.78 676.382 535.343C676.382 535.906 676.838 536.362 677.399 536.362Z" fill="#FF8AE2"/>
<path d="M669.773 545.706C670.334 545.706 670.79 545.25 670.79 544.687C670.79 544.124 670.334 543.668 669.773 543.668C669.211 543.668 668.756 544.124 668.756 544.687C668.756 545.25 669.211 545.706 669.773 545.706Z" fill="#FF8AE2"/>
<path d="M681.128 548.765C681.689 548.765 682.145 548.308 682.145 547.745C682.145 547.182 681.689 546.726 681.128 546.726C680.566 546.726 680.111 547.182 680.111 547.745C680.111 548.308 680.566 548.765 681.128 548.765Z" fill="#FF8AE2"/>
<path d="M666.553 552.332C667.115 552.332 667.57 551.876 667.57 551.313C667.57 550.75 667.115 550.293 666.553 550.293C665.992 550.293 665.536 550.75 665.536 551.313C665.536 551.876 665.992 552.332 666.553 552.332Z" fill="#FF8AE2"/>
<path d="M665.536 576.117C666.097 576.117 666.552 575.661 666.552 575.098C666.552 574.535 666.097 574.078 665.536 574.078C664.974 574.078 664.519 574.535 664.519 575.098C664.519 575.661 664.974 576.117 665.536 576.117Z" fill="#FF8AE2"/>
<path d="M664.011 563.375C664.572 563.375 665.028 562.919 665.028 562.356C665.028 561.793 664.572 561.336 664.011 561.336C663.449 561.336 662.994 561.793 662.994 562.356C662.994 562.919 663.449 563.375 664.011 563.375Z" fill="#FF8AE2"/>
<path d="M539.106 544.007C539.668 544.007 540.123 543.551 540.123 542.988C540.123 542.425 539.668 541.969 539.106 541.969C538.545 541.969 538.089 542.425 538.089 542.988C538.089 543.551 538.545 544.007 539.106 544.007Z" fill="#FF8AE2"/>
<path d="M545.377 548.765C545.939 548.765 546.394 548.308 546.394 547.745C546.394 547.182 545.939 546.726 545.377 546.726C544.816 546.726 544.36 547.182 544.36 547.745C544.36 548.308 544.816 548.765 545.377 548.765Z" fill="#FF8AE2"/>
<path d="M563.511 537.382C564.073 537.382 564.528 536.925 564.528 536.362C564.528 535.799 564.073 535.343 563.511 535.343C562.95 535.343 562.495 535.799 562.495 536.362C562.495 536.925 562.95 537.382 563.511 537.382Z" fill="#FF8AE2"/>
<path d="M557.749 546.726C558.31 546.726 558.766 546.269 558.766 545.706C558.766 545.143 558.31 544.687 557.749 544.687C557.187 544.687 556.732 545.143 556.732 545.706C556.732 546.269 557.187 546.726 557.749 546.726Z" fill="#FF8AE2"/>
<path d="M546.902 558.788C547.464 558.788 547.919 558.332 547.919 557.769C547.919 557.206 547.464 556.749 546.902 556.749C546.34 556.749 545.885 557.206 545.885 557.769C545.885 558.332 546.34 558.788 546.902 558.788Z" fill="#FF8AE2"/>
<path d="M547.919 541.799C548.481 541.799 548.936 541.342 548.936 540.779C548.936 540.216 548.481 539.76 547.919 539.76C547.358 539.76 546.902 540.216 546.902 540.779C546.902 541.342 547.358 541.799 547.919 541.799Z" fill="#FF8AE2"/>
<path d="M546.394 572.889C546.955 572.889 547.411 572.433 547.411 571.87C547.411 571.307 546.955 570.851 546.394 570.851C545.832 570.851 545.377 571.307 545.377 571.87C545.377 572.433 545.832 572.889 546.394 572.889Z" fill="#FF8AE2"/>
<path d="M1059.74 81.897C1059.74 79.5185 1055.16 78.4991 1054.32 76.9701C1053.81 76.1206 1055.33 75.441 1056.52 75.6109C1057.37 75.6109 1064.65 76.9701 1069.74 76.9701C1087.03 77.4797 1091.6 73.2324 1091.43 70.8539C1091.26 68.4754 1084.65 67.2861 1083.64 65.7571C1082.79 64.228 1083.97 62.699 1089.91 61.6796C1096.01 60.6603 1106.52 60.1506 1113.46 56.9226C1120.41 53.6946 1118.89 49.957 1110.07 47.2387C1106.85 45.8795 1108.89 43.8408 1114.99 39.0838C1121.09 34.3268 1136.17 19.3761 1131.43 11.561C1127.36 5.78466 1119.9 9.18253 1114.65 14.6191C1110.58 18.6966 1102.62 27.0214 1099.74 27.1912C1094.48 27.7009 1099.23 19.7159 1096.52 16.8277C1093.8 13.9396 1088.04 19.0364 1085.67 23.2837C1083.3 27.531 1081.43 34.3268 1078.89 39.2537C1076.18 44.6903 1073.47 42.6516 1072.62 40.7827C1071.94 38.9139 1073.13 31.2687 1067.87 30.4192C1063.3 29.7396 1057.88 41.4623 1053.3 48.0882C1051.6 50.6366 1049.4 53.0151 1047.03 55.0538C1045.67 56.0731 1044.99 55.7334 1044.66 55.0538C1043.98 54.0344 1044.66 47.5785 1040.08 46.2193C1036.01 45.2 1032.11 51.9957 1026.86 58.2818C1022.62 63.3786 1016.69 66.0969 1010.25 68.1356C1001.44 70.8539 988.051 71.5335 988.051 71.5335C988.051 71.5335 994.66 74.4216 1000.25 76.1206C1013.81 80.198 1020.25 82.4066 1035.5 83.9357C1047.03 85.1249 1059.06 86.3142 1059.74 81.897C1059.74 81.897 1059.74 82.0669 1059.74 81.897Z" fill="#93C2DB"/>
<path d="M356.24 213.564C363.528 198.104 361.155 178.736 353.02 163.446C345.055 148.495 334.717 137.792 318.108 129.977C314.041 128.108 303.025 124.88 303.025 124.88C303.025 124.88 303.194 134.224 303.533 136.942C305.058 148.325 306.753 160.218 313.702 168.033C320.142 175.338 328.446 178.906 337.089 183.663C360.986 197.085 356.24 213.564 356.24 213.564Z" fill="#93C2DB"/>
<path d="M232.353 321.447C232.353 321.447 276.755 319.238 293.364 352.027C311.159 387.025 328.615 398.918 328.615 398.918C328.615 398.918 292.517 403.845 275.4 383.118C258.113 362.391 265.739 341.494 232.353 321.447Z" fill="#93C2DB"/>
<path d="M1053.3 238.369C1053.3 238.369 1044.66 215.433 1055.67 200.313C1064.32 188.25 1084.82 185.362 1103.13 187.401C1115.5 188.76 1131.26 180.775 1131.26 180.775C1131.26 180.775 1131.26 199.123 1111.26 204.9C1100.08 208.128 1090.25 203.201 1074.82 213.564C1054.66 226.986 1053.3 238.369 1053.3 238.369Z" fill="#93C2DB"/>
<path d="M598.254 249.752C590.966 234.291 593.509 215.093 601.474 199.633C616.049 171.601 651.47 166.164 651.47 166.164C651.47 166.164 648.419 189.1 637.403 202.181C631.133 209.657 620.116 212.375 612.49 218.491C594.356 232.932 598.254 249.752 598.254 249.752Z" fill="#93C2DB"/>
<path d="M963.307 283.051C961.951 282.031 905.685 261.814 956.359 220.36L991.101 192.328C991.101 192.328 992.287 223.418 970.425 243.805C948.732 263.683 963.307 283.051 963.307 283.051Z" fill="#93C2DB"/>
<path d="M403.016 283.051C401.66 282.031 345.394 261.814 396.067 220.36L430.81 192.328C430.81 192.328 431.996 223.418 410.134 243.805C388.61 263.683 403.016 283.051 403.016 283.051Z" fill="#93C2DB"/>
<path d="M902.296 403.845C902.296 403.845 921.955 373.434 955.511 370.885C983.645 368.677 1018.73 384.987 1018.73 384.987C1018.73 384.987 991.271 407.922 956.528 404.185C931.446 401.466 924.158 393.142 902.296 403.845Z" fill="#93C2DB"/>
<path d="M216.422 110.099C212.016 110.099 211.677 122.331 211.168 133.884C210.66 149.175 212.016 155.801 214.219 169.902C215.066 175.678 217.1 182.644 217.1 182.644C217.1 182.644 219.473 169.392 223.371 160.897C226.252 154.781 229.641 149.175 235.234 145.607C242.013 141.36 249.301 138.302 248.962 134.224C248.114 129.467 241.674 129.297 240.827 128.448C240.318 127.938 239.979 127.258 241.166 126.069C243.538 124.03 246.25 122.162 248.962 120.802C256.08 117.065 268.452 113.327 268.282 108.74C268.113 103.303 260.486 103.643 258.791 102.624C256.927 101.604 255.402 98.7163 261.164 96.6776C266.418 94.8088 273.366 93.9593 277.942 92.0905C282.518 90.3915 288.28 85.4646 285.908 82.2366C283.366 79.0087 274.892 82.7463 276.078 77.4796C276.756 74.5914 285.908 67.7957 290.653 64.3978C296.754 59.9806 301.161 52.8451 295.907 48.088C288.789 42.3117 272.011 55.2236 266.418 60.6602C260.825 66.0968 258.622 67.7957 257.605 64.5677C256.08 55.5634 252.521 53.5246 248.453 59.9806C244.386 66.4365 242.352 76.8 240.657 82.7463C238.963 88.6926 237.098 89.5421 235.743 88.5227C234.387 87.5033 234.048 80.5377 231.675 80.1979C229.472 79.6882 224.727 83.5958 222.693 100.925C222.184 105.852 222.354 113.327 222.354 114.177C222.184 115.536 221.506 116.895 220.659 116.215C219.134 115.196 218.795 110.269 216.422 110.099Z" fill="#93C2DB"/>
<path d="M823.488 235.31C825.692 234.801 825.692 230.044 827.048 229.024C827.895 228.345 828.573 229.704 828.912 230.893C829.081 231.743 829.42 239.218 830.268 244.145C833.488 261.304 838.403 264.702 840.606 264.022C842.809 263.343 842.639 256.547 843.995 255.358C845.351 254.169 847.046 255.018 849.249 260.625C851.452 266.401 854.164 276.595 858.74 282.711C863.316 288.827 866.536 286.448 867.383 277.274C868.061 273.876 870.434 275.405 876.365 280.332C882.297 285.259 899.753 296.812 906.363 290.696C911.108 285.599 906.193 278.803 899.923 274.896C895.177 271.668 885.517 265.721 884.67 262.833C883.145 257.736 891.788 260.794 893.991 257.397C896.194 253.999 890.093 249.581 885.517 248.222C880.941 246.863 873.993 246.354 868.739 244.994C862.977 243.465 864.333 240.407 866.027 239.218C867.553 238.029 875.179 237.859 875.01 232.422C874.84 227.835 862.299 224.947 855.011 221.889C852.3 220.7 849.588 219.001 847.046 217.132C845.86 216.112 846.029 215.263 846.537 214.753C847.385 213.904 853.655 213.054 854.164 208.297C854.164 204.22 846.876 201.671 839.928 197.934C833.996 194.876 830.268 189.609 827.048 183.663C822.641 175.678 819.421 163.106 819.421 163.106C819.421 163.106 817.896 169.562 817.387 175.508C816.37 189.779 815.523 196.575 817.218 211.695C817.896 223.418 819.082 235.65 823.488 235.31Z" fill="#93C2DB"/>
<path d="M767.9 121.822C767.731 122.161 750.105 149.005 746.207 190.798C745.868 187.74 745.868 183.493 745.699 180.265C751.122 143.568 765.866 120.802 766.036 120.632L767.9 121.822Z" fill="#FF8AE2"/>
<path d="M299.974 385.836C290.314 381.249 286.416 373.264 282.009 363.92C278.789 357.124 275.061 349.309 268.282 341.834C249.978 321.956 208.456 317.539 208.117 317.539L208.456 314.991C210.151 315.161 251.334 319.578 270.315 340.135C277.434 347.78 281.162 355.765 284.552 362.731C288.789 371.565 292.348 379.21 301.16 383.288L299.974 385.836Z" fill="#FF8AE2"/>
<path d="M216.93 202.181C215.913 194.196 212.016 153.252 226.082 123.011C242.691 87.673 274.553 64.5675 274.891 64.3976L276.417 66.4363C276.078 66.6062 244.725 89.3719 228.455 124.2C214.558 153.762 218.625 194.196 219.472 202.011L216.93 202.181Z" fill="#FF8AE2"/>
<path d="M1015.51 75.101C993.643 75.101 973.984 70.344 968.73 68.9849L969.408 66.4365C977.034 68.4752 1016.35 77.8193 1047.54 68.1354C1084.14 56.7525 1110.75 28.7201 1111.09 28.3803L1112.95 30.0792C1112.62 30.419 1085.5 58.7913 1048.38 70.5139C1037.71 73.9118 1026.18 75.101 1015.51 75.101Z" fill="#FF8AE2"/>
<path d="M884.5 276.255C884.161 276.085 851.113 255.528 832.132 221.549C824.675 208.297 821.116 192.327 819.082 178.226C818.574 174.828 818.065 167.863 818.065 167.863L819.591 159.878C820.438 176.357 823.828 201.502 834.335 220.36C852.977 253.659 885.517 274.046 885.856 274.216L884.5 276.255Z" fill="#FF8AE2"/>
<path d="M360.308 189.779C360.138 187.74 359.969 185.532 359.63 183.493C345.394 161.067 317.6 141.699 316.244 140.85L314.888 142.889C315.058 143.058 347.767 165.654 360.308 189.779Z" fill="#FF8AE2"/>
<path d="M415.388 214.754C415.218 214.923 405.05 224.777 395.39 233.952C383.526 245.164 379.289 256.547 382.509 269.799C383.696 270.988 384.882 272.178 386.238 273.197C381.323 259.096 384.713 247.543 397.254 235.82C406.914 226.646 417.252 216.622 417.252 216.622L415.388 214.754Z" fill="#FF8AE2"/>
<path d="M973.984 218.661C973.814 218.831 963.646 228.685 953.986 237.859C944.325 247.033 939.749 256.208 940.088 266.401C940.936 267.59 941.953 268.61 942.969 269.629C941.444 258.756 945.512 249.242 955.85 239.558C965.51 230.384 975.848 220.36 975.848 220.36L973.984 218.661Z" fill="#FF8AE2"/>
<path d="M594.864 219.51C594.525 221.719 594.186 223.928 594.186 226.136C606.388 200.992 635.877 184.003 636.216 183.833L635.03 181.624C634.86 181.624 624.353 187.74 613.337 197.764C607.066 203.371 600.117 210.676 594.864 219.51Z" fill="#FF8AE2"/>
<path d="M1071.26 200.143C1082.96 194.366 1101.43 196.405 1101.6 196.405L1101.94 193.857C1101.09 193.687 1082.45 191.648 1070.08 197.764C1061.94 201.672 1055.33 207.958 1050.08 216.453C1049.91 218.152 1049.91 220.02 1050.08 221.719C1055.33 211.865 1062.45 204.56 1071.26 200.143Z" fill="#FF8AE2"/>
<path d="M889.754 416.757L887.72 415.228C888.059 414.888 894.499 406.393 905.515 399.597C911.616 395.86 918.395 392.802 927.039 389.744C950.596 381.759 985.339 384.477 986.864 384.647L986.695 387.195C986.356 387.195 950.935 384.307 927.886 392.292C919.243 395.18 912.803 398.238 906.871 401.806C896.363 408.262 889.923 416.757 889.754 416.757Z" fill="#FF8AE2"/>
</svg>
